<?xml version="1.0" ?><svg id="Icons" style="enable-background:new 0 0 32 32;" version="1.1" viewBox="0 0 32 32" xml:space="preserve" xmlns="http://www.w3.org/2000/svg" xmlns:xlink="http://www.w3.org/1999/xlink"><style type="text/css">
	.st0{fill:#ffffff;}
	.st1{fill:#ffffff;}
	.st2{fill:#ffffff;}
	.st3{fill:#ffffff;}
	.st4{fill:#ffffff;}
	.st5{fill:#ffffff;}
	.st6{fill:#ffffff;}
	.st7{fill:#ffffff;}
	.st8{fill:#ffffff;}
	.st9{fill:#ffffff;}
	.st10{fill:#ffffff;}
	.st11{fill:#ffffff;}
	.st12{fill:#ffffff;}
	.st13{fill:#FFFEFF;}
	.st14{fill:#ffffff;}
	.st15{fill:#ffffff;}
	.st16{fill:#ffffff;}
	.st17{fill:#ffffff;}
	.st18{fill:#ffffff;}
	.st19{fill:#ffffff;}
	.st20{fill:#ffffff;}
	.st21{fill:#ffffff;}
	.st22{fill:#ffffff;}
	.st23{fill:#ffffff;}
	.st24{fill:#ffffff;}
	.st25{fill:#ffffff;}
	.st26{fill:#ffffff;}
	.st27{fill:#ffffff;}
	.st28{fill:#ffffff;}
	.st29{fill:#ffffff;}
	.st30{fill:#ffffff;}
	.st31{fill:#ffffff;}
	.st32{fill:none;stroke:#FFFFFF;stroke-width:2;stroke-miterlimit:10;}
	.st33{fill:#ffffff;}
	.st34{fill:#ffffff;}
	.st35{fill:#ffffff;}
	.st36{fill:#ffffff;}
	.st37{fill:#ffffff;}
	.st38{fill:#ffffff;}
	.st39{fill:none;}
	.st40{fill:#ffffff;}
	.st41{fill:#ffffff;}
	.st42{fill:#ffffff;}
	.st43{fill:#ffffff;}
</style><g><g><path class="st5" d="M10.5,30.6c-3.5,0-7-1-10-3c-0.4-0.3-0.5-0.7-0.4-1.2c0.2-0.4,0.6-0.7,1.1-0.7c2.3,0.3,4.5-0.1,6.4-1.1    c-1.9-0.8-3.5-2.4-4.1-4.5c-0.1-0.3,0-0.7,0.2-1c0,0,0.1-0.1,0.1-0.1c-1.5-1.4-2.5-3.4-2.5-5.5c0-0.4,0.2-0.7,0.5-0.9    c0.1-0.1,0.3-0.1,0.4-0.1C1.6,11.4,1.3,10.2,1.3,9c0-1.3,0.3-2.6,1-3.7C2.4,5,2.7,4.8,3.1,4.8c0.3,0,0.7,0.1,0.9,0.4    c2.3,2.9,5.5,5,9.1,5.8c0-4.4,3.6-8,8-8c2.2,0,4.3,0.9,5.8,2.5c1-0.3,1.8-0.8,2.7-1.3c0.4-0.2,0.9-0.2,1.2,0.1    C31,4.6,31.1,5,30.9,5.4l-1.5,3l1.9,0.6C31.7,9.2,32,9.5,32,9.9c0,0.4-0.1,0.8-0.5,1l-2.6,1.5C28.6,21.4,21.7,30.6,10.5,30.6z"/></g></g></svg>